<svg xmlns="http://www.w3.org/2000/svg" xmlns:xlink="http://www.w3.org/1999/xlink" width="130" zoomAndPan="magnify" viewBox="0 0 97.5 30.000001" height="40" preserveAspectRatio="xMidYMid meet" version="1.0"><defs><g/><clipPath id="572e2202bd"><path d="M 1.332031 9 L 27 9 L 27 25.304688 L 1.332031 25.304688 Z M 1.332031 9 " clip-rule="nonzero"/></clipPath><clipPath id="fc1c1d14d5"><path d="M 26 10 L 27.460938 10 L 27.460938 22 L 26 22 Z M 26 10 " clip-rule="nonzero"/></clipPath><clipPath id="0c55916ddf"><path d="M 84 6 L 95.683594 6 L 95.683594 21 L 84 21 Z M 84 6 " clip-rule="nonzero"/></clipPath></defs><g clip-path="url(#572e2202bd)"><path fill="#6fda44" d="M 21.132812 19.097656 C 20.390625 19.054688 19.695312 18.84375 19.054688 18.464844 C 18.410156 18.085938 17.890625 17.578125 17.496094 16.945312 C 17.964844 13.195312 19.335938 12.03125 21.148438 12.03125 C 22.960938 12.03125 24.335938 13.433594 24.335938 15.542969 C 24.335938 17.648438 22.933594 19.054688 21.148438 19.054688 M 21.148438 9.683594 C 20.507812 9.660156 19.882812 9.742188 19.273438 9.9375 C 18.664062 10.128906 18.105469 10.421875 17.597656 10.8125 C 17.089844 11.203125 16.667969 11.667969 16.324219 12.207031 C 15.980469 12.746094 15.738281 13.332031 15.597656 13.953125 C 14.996094 12.691406 14.542969 11.375 14.242188 10.007812 L 9.769531 10.007812 L 9.769531 15.554688 C 9.769531 17.570312 8.855469 19.066406 7.066406 19.066406 C 5.277344 19.066406 4.257812 17.578125 4.257812 15.554688 L 4.257812 10.007812 L 1.6875 10.007812 L 1.6875 15.554688 C 1.65625 16.324219 1.769531 17.070312 2.027344 17.796875 C 2.28125 18.523438 2.664062 19.175781 3.167969 19.757812 C 3.667969 20.300781 4.257812 20.714844 4.933594 21.003906 C 5.613281 21.289062 6.320312 21.425781 7.058594 21.40625 C 10.15625 21.40625 12.328125 19.027344 12.328125 15.621094 L 12.328125 11.867188 C 12.855469 13.902344 13.714844 15.785156 14.898438 17.523438 L 13.519531 25.375 L 16.132812 25.375 L 17.039062 19.8125 C 17.339844 20.070312 17.65625 20.304688 17.996094 20.515625 C 18.882812 21.074219 19.851562 21.375 20.902344 21.414062 L 21.140625 21.414062 C 21.523438 21.417969 21.90625 21.382812 22.28125 21.308594 C 22.65625 21.238281 23.023438 21.128906 23.378906 20.980469 C 23.734375 20.832031 24.070312 20.652344 24.386719 20.4375 C 24.703125 20.222656 24.996094 19.976562 25.265625 19.703125 C 25.535156 19.429688 25.773438 19.132812 25.980469 18.808594 C 26.1875 18.484375 26.363281 18.144531 26.5 17.789062 C 26.640625 17.429688 26.742188 17.0625 26.808594 16.683594 C 26.871094 16.304688 26.898438 15.925781 26.886719 15.542969 C 26.894531 15.160156 26.867188 14.78125 26.796875 14.40625 C 26.730469 14.027344 26.625 13.664062 26.484375 13.308594 C 26.34375 12.953125 26.171875 12.613281 25.960938 12.292969 C 25.753906 11.972656 25.515625 11.675781 25.246094 11.40625 C 24.976562 11.132812 24.683594 10.890625 24.367188 10.675781 C 24.050781 10.464844 23.714844 10.285156 23.363281 10.136719 C 23.007812 9.992188 22.644531 9.882812 22.269531 9.808594 C 21.894531 9.738281 21.515625 9.703125 21.132812 9.707031 " fill-opacity="1" fill-rule="nonzero"/></g><g clip-path="url(#fc1c1d14d5)"><path fill="#6fda44" d="M 40.328125 10.042969 L 38.472656 17.726562 L 36.492188 10.042969 L 33.234375 10.042969 L 31.253906 17.726562 L 29.398438 10.042969 L 26.808594 10.042969 L 29.652344 21.035156 L 32.730469 21.035156 L 34.863281 13.230469 L 36.976562 21.035156 L 40.054688 21.035156 L 43.058594 10.042969 Z M 40.328125 10.042969 " fill-opacity="1" fill-rule="nonzero"/></g><g fill="#0056d2" fill-opacity="1"><g transform="translate(26.033558, 19.938856)"><g><path d="M 15.53125 -10.046875 L 12.8125 0 L 9.40625 0 L 7.828125 -6.515625 L 6.1875 0 L 2.8125 0 L 0.078125 -10.046875 L 3.15625 -10.046875 L 4.578125 -2.859375 L 6.265625 -10.046875 L 9.515625 -10.046875 L 11.234375 -2.890625 L 12.640625 -10.046875 Z M 15.53125 -10.046875 "/></g></g></g><g fill="#0056d2" fill-opacity="1"><g transform="translate(41.619486, 19.938856)"><g><path d="M 5.6875 0.140625 C 4.707031 0.140625 3.820312 -0.0664062 3.03125 -0.484375 C 2.25 -0.898438 1.628906 -1.5 1.171875 -2.28125 C 0.722656 -3.0625 0.5 -3.972656 0.5 -5.015625 C 0.5 -6.046875 0.726562 -6.953125 1.1875 -7.734375 C 1.644531 -8.523438 2.269531 -9.128906 3.0625 -9.546875 C 3.851562 -9.972656 4.738281 -10.1875 5.71875 -10.1875 C 6.707031 -10.1875 7.597656 -9.972656 8.390625 -9.546875 C 9.179688 -9.128906 9.800781 -8.523438 10.25 -7.734375 C 10.707031 -6.953125 10.9375 -6.046875 10.9375 -5.015625 C 10.9375 -3.984375 10.707031 -3.070312 10.25 -2.28125 C 9.789062 -1.5 9.160156 -0.898438 8.359375 -0.484375 C 7.554688 -0.0664062 6.664062 0.140625 5.6875 0.140625 Z M 5.6875 -2.515625 C 6.269531 -2.515625 6.769531 -2.726562 7.1875 -3.15625 C 7.601562 -3.59375 7.8125 -4.210938 7.8125 -5.015625 C 7.8125 -5.828125 7.609375 -6.445312 7.203125 -6.875 C 6.804688 -7.3125 6.3125 -7.53125 5.71875 -7.53125 C 5.125 -7.53125 4.628906 -7.316406 4.234375 -6.890625 C 3.835938 -6.460938 3.640625 -5.835938 3.640625 -5.015625 C 3.640625 -4.210938 3.832031 -3.59375 4.21875 -3.15625 C 4.613281 -2.726562 5.101562 -2.515625 5.6875 -2.515625 Z M 5.6875 -2.515625 "/></g></g></g><g fill="#0056d2" fill-opacity="1"><g transform="translate(53.083957, 19.938856)"><g><path d="M 4.1875 -8.375 C 4.550781 -8.925781 5.003906 -9.359375 5.546875 -9.671875 C 6.085938 -9.992188 6.6875 -10.15625 7.34375 -10.15625 L 7.34375 -6.890625 L 6.5 -6.890625 C 5.726562 -6.890625 5.148438 -6.722656 4.765625 -6.390625 C 4.378906 -6.066406 4.1875 -5.488281 4.1875 -4.65625 L 4.1875 0 L 1.109375 0 L 1.109375 -10.046875 L 4.1875 -10.046875 Z M 4.1875 -8.375 "/></g></g></g><g fill="#0056d2" fill-opacity="1"><g transform="translate(60.786928, 19.938856)"><g><path d="M 7.25 0 L 4.1875 -4.21875 L 4.1875 0 L 1.109375 0 L 1.109375 -13.3125 L 4.1875 -13.3125 L 4.1875 -5.953125 L 7.234375 -10.046875 L 11.03125 -10.046875 L 6.859375 -5 L 11.0625 0 Z M 7.25 0 "/></g></g></g><g fill="#0056d2" fill-opacity="1"><g transform="translate(71.909446, 19.938856)"><g><path d="M 4.1875 -8.625 C 4.476562 -9.09375 4.894531 -9.46875 5.4375 -9.75 C 5.976562 -10.039062 6.597656 -10.1875 7.296875 -10.1875 C 8.117188 -10.1875 8.863281 -9.972656 9.53125 -9.546875 C 10.207031 -9.128906 10.738281 -8.53125 11.125 -7.75 C 11.519531 -6.976562 11.71875 -6.078125 11.71875 -5.046875 C 11.71875 -4.003906 11.519531 -3.09375 11.125 -2.3125 C 10.738281 -1.53125 10.207031 -0.925781 9.53125 -0.5 C 8.863281 -0.0703125 8.117188 0.140625 7.296875 0.140625 C 6.585938 0.140625 5.96875 0 5.4375 -0.28125 C 4.90625 -0.5625 4.488281 -0.9375 4.1875 -1.40625 L 4.1875 0 L 1.109375 0 L 1.109375 -13.3125 L 4.1875 -13.3125 Z M 8.59375 -5.046875 C 8.59375 -5.804688 8.378906 -6.40625 7.953125 -6.84375 C 7.523438 -7.28125 7 -7.5 6.375 -7.5 C 5.757812 -7.5 5.238281 -7.273438 4.8125 -6.828125 C 4.382812 -6.390625 4.171875 -5.785156 4.171875 -5.015625 C 4.171875 -4.253906 4.382812 -3.648438 4.8125 -3.203125 C 5.238281 -2.753906 5.757812 -2.53125 6.375 -2.53125 C 6.988281 -2.53125 7.507812 -2.753906 7.9375 -3.203125 C 8.375 -3.660156 8.59375 -4.273438 8.59375 -5.046875 Z M 8.59375 -5.046875 "/></g></g></g><g clip-path="url(#0c55916ddf)"><g fill="#0056d2" fill-opacity="1"><g transform="translate(84.129826, 19.938856)"><g><path d="M 0.5 -5.046875 C 0.5 -6.078125 0.691406 -6.976562 1.078125 -7.75 C 1.472656 -8.53125 2.003906 -9.128906 2.671875 -9.546875 C 3.347656 -9.972656 4.101562 -10.1875 4.9375 -10.1875 C 5.59375 -10.1875 6.191406 -10.046875 6.734375 -9.765625 C 7.285156 -9.492188 7.71875 -9.125 8.03125 -8.65625 L 8.03125 -13.3125 L 11.109375 -13.3125 L 11.109375 0 L 8.03125 0 L 8.03125 -1.4375 C 7.738281 -0.957031 7.328125 -0.570312 6.796875 -0.28125 C 6.265625 0 5.644531 0.140625 4.9375 0.140625 C 4.101562 0.140625 3.347656 -0.0703125 2.671875 -0.5 C 2.003906 -0.925781 1.472656 -1.53125 1.078125 -2.3125 C 0.691406 -3.09375 0.5 -4.003906 0.5 -5.046875 Z M 8.03125 -5.015625 C 8.03125 -5.785156 7.816406 -6.390625 7.390625 -6.828125 C 6.960938 -7.273438 6.441406 -7.5 5.828125 -7.5 C 5.210938 -7.5 4.691406 -7.28125 4.265625 -6.84375 C 3.847656 -6.40625 3.640625 -5.804688 3.640625 -5.046875 C 3.640625 -4.273438 3.847656 -3.660156 4.265625 -3.203125 C 4.691406 -2.753906 5.210938 -2.53125 5.828125 -2.53125 C 6.441406 -2.53125 6.960938 -2.753906 7.390625 -3.203125 C 7.816406 -3.648438 8.03125 -4.253906 8.03125 -5.015625 Z M 8.03125 -5.015625 "/></g></g></g></g></svg>